<svg width="256" height="256" viewBox="0 0 256 256" fill="none" xmlns="http://www.w3.org/2000/svg">
<circle cx="128" cy="59.7226" r="28.2226" stroke="#DE64A9" stroke-width="13"/>
<circle cx="128" cy="59.7226" r="28.2226" stroke="#DE64A9" stroke-width="13"/>
<circle cx="209.465" cy="197.277" r="28.2226" stroke="#DE64A9" stroke-width="13"/>
<circle cx="209.465" cy="197.277" r="28.2226" stroke="#DE64A9" stroke-width="13"/>
<circle cx="46.5355" cy="197.277" r="28.2226" stroke="#DE64A9" stroke-width="13"/>
<circle cx="46.5355" cy="197.277" r="28.2226" stroke="#DE64A9" stroke-width="13"/>
<rect x="89.2709" y="190.6" width="10.6839" height="16.0258" fill="#DE64A9"/>
<rect x="110.639" y="190.6" width="10.6839" height="16.0258" fill="#DE64A9"/>
<rect x="134.677" y="190.6" width="10.6839" height="16.0258" fill="#DE64A9"/>
<rect x="156.045" y="190.6" width="10.6839" height="16.0258" fill="#DE64A9"/>
<rect x="60.6722" y="157.389" width="10.6839" height="16.0258" transform="rotate(-60.3099 60.6722 157.389)" fill="#DE64A9"/>
<rect x="71.2559" y="138.826" width="10.6839" height="16.0258" transform="rotate(-60.3099 71.2559 138.826)" fill="#DE64A9"/>
<rect x="83.1625" y="117.943" width="10.6839" height="16.0258" transform="rotate(-60.3099 83.1625 117.943)" fill="#DE64A9"/>
<rect x="93.7461" y="99.3807" width="10.6839" height="16.0258" transform="rotate(-60.3099 93.7461 99.3807)" fill="#DE64A9"/>
<rect x="180.048" y="165.545" width="10.6839" height="16.0258" transform="rotate(-119.969 180.048 165.545)" fill="#DE64A9"/>
<rect x="169.374" y="147.035" width="10.6839" height="16.0258" transform="rotate(-119.969 169.374 147.035)" fill="#DE64A9"/>
<rect x="157.366" y="126.21" width="10.6839" height="16.0258" transform="rotate(-119.969 157.366 126.21)" fill="#DE64A9"/>
<rect x="146.692" y="107.7" width="10.6839" height="16.0258" transform="rotate(-119.969 146.692 107.7)" fill="#DE64A9"/>
</svg>
